<svg width="36" height="23" viewBox="0 0 36 23" fill="none" xmlns="http://www.w3.org/2000/svg">
<path d="M34.4081 0H1.7041C1.15182 0 0.704102 0.447715 0.704102 1V3.127C0.704102 3.67928 1.15182 4.127 1.7041 4.127H34.4081C34.9604 4.127 35.4081 3.67928 35.4081 3.127V1C35.4081 0.447715 34.9604 0 34.4081 0Z" fill="#707070"/>
<path d="M34.4081 0.5H1.7041C1.42796 0.5 1.2041 0.723858 1.2041 1V3.127C1.2041 3.40314 1.42796 3.627 1.7041 3.627H34.4081C34.6842 3.627 34.9081 3.40314 34.9081 3.127V1C34.9081 0.723858 34.6842 0.5 34.4081 0.5Z" stroke="#707070"/>
<path d="M34.7032 8.972H9.40723C8.85494 8.972 8.40723 9.41972 8.40723 9.972V12.099C8.40723 12.6513 8.85494 13.099 9.40723 13.099H34.7032C35.2555 13.099 35.7032 12.6513 35.7032 12.099V9.972C35.7032 9.41972 35.2555 8.972 34.7032 8.972Z" fill="#707070"/>
<path d="M34.7032 9.472H9.40723C9.13108 9.472 8.90723 9.69586 8.90723 9.972V12.099C8.90723 12.3751 9.13108 12.599 9.40723 12.599H34.7032C34.9794 12.599 35.2032 12.3751 35.2032 12.099V9.972C35.2032 9.69586 34.9794 9.472 34.7032 9.472Z" stroke="#707070"/>
<path d="M34.7032 17.944H20.4072C19.8549 17.944 19.4072 18.3917 19.4072 18.944V21.071C19.4072 21.6233 19.8549 22.071 20.4072 22.071H34.7032C35.2555 22.071 35.7032 21.6233 35.7032 21.071V18.944C35.7032 18.3917 35.2555 17.944 34.7032 17.944Z" fill="#707070"/>
<path d="M34.7032 18.444H20.4072C20.1311 18.444 19.9072 18.6679 19.9072 18.944V21.071C19.9072 21.3471 20.1311 21.571 20.4072 21.571H34.7032C34.9794 21.571 35.2032 21.3471 35.2032 21.071V18.944C35.2032 18.6679 34.9794 18.444 34.7032 18.444Z" stroke="#707070"/>
</svg>
