<svg width="29" height="32" viewBox="0 0 29 32" fill="none" xmlns="http://www.w3.org/2000/svg">
<path d="M24.336 29.7129L15.1669 19.5296C14.5931 18.8923 14.6447 17.9068 15.2821 17.3329C15.9194 16.759 16.9049 16.8107 17.4788 17.448L26.6478 27.6313C27.2217 28.2687 27.1701 29.2541 26.5327 29.828C25.8953 30.4019 24.9099 30.3503 24.336 29.7129Z" fill="#515151"/>
<path d="M17.1073 17.7826C16.7179 17.3501 16.0492 17.3151 15.6167 17.7045C15.1843 18.0939 15.1492 18.7626 15.5386 19.1951L24.7077 29.3783C25.0971 29.8108 25.7658 29.8459 26.1982 29.4565C26.6307 29.067 26.6658 28.3984 26.2764 27.9659L17.1073 17.7826ZM17.8505 17.1135L27.0195 27.2968C27.7791 28.1404 27.711 29.44 26.8674 30.1996C26.0238 30.9592 24.7241 30.8911 23.9645 30.0475L14.7955 19.8642C14.0359 19.0206 14.104 17.7209 14.9476 16.9614C15.7912 16.2018 17.0909 16.2699 17.8505 17.1135Z" fill="#515151"/>
<path d="M11.4102 22.565C17.4644 22.565 22.3722 17.6571 22.3722 11.603C22.3722 5.54885 17.4644 0.640991 11.4102 0.640991C5.3561 0.640991 0.448242 5.54885 0.448242 11.603C0.448242 17.6571 5.3561 22.565 11.4102 22.565Z" fill="#F3EA64"/>
<path d="M11.4102 21.565C16.9121 21.565 21.3722 17.1049 21.3722 11.603C21.3722 6.10113 16.9121 1.64099 11.4102 1.64099C5.90838 1.64099 1.44824 6.10113 1.44824 11.603C1.44824 17.1049 5.90838 21.565 11.4102 21.565Z" stroke="#515151" stroke-width="2" stroke-linejoin="bevel"/>
</svg>
